/* XPM */
static char *_ee06ed198164b51fc74d4018fd34e06npxuf7B0lp6gTKHc[] = {
/* columns rows colors chars-per-pixel */
"32 32 66 1 ",
"  c #7D6BCF",
". c #7B6FCD",
"X c #7C6ECD",
"o c #747FC3",
"O c #7779C7",
"+ c #757DC4",
"@ c #7878C7",
"# c #7A72CB",
"$ c #7974CA",
"% c #7B70CC",
"& c #7878C8",
"* c #7F63D3",
"= c #7E67D1",
"- c #7E68D0",
"; c #825BD7",
": c #805FD5",
"> c #8453DA",
", c #8257D8",
"< c #8060D4",
"1 c #2BBF8B",
"2 c #2DBF8B",
"3 c #2FBE8C",
"4 c #36BB8F",
"5 c #31BD8D",
"6 c #34BC8F",
"7 c #3FB794",
"8 c #37BB90",
"9 c #39BA91",
"0 c #3DB893",
"q c #4EAE9D",
"w c #50AC9F",
"e c #41B695",
"r c #44B497",
"t c #46B399",
"y c #45B498",
"u c #49B19B",
"i c #4BB09C",
"p c #5E9FAB",
"a c #5F9EAC",
"s c #629BAF",
"d c #619CAE",
"f c #6E8BBB",
"g c #6B8FB8",
"h c #6C8EB8",
"j c #6E8ABC",
"k c #7184BF",
"l c #7088BD",
"z c #6697B2",
"x c #6794B4",
"c c #6992B6",
"v c #6894B4",
"b c #6399B0",
"n c #6598B1",
"m c #57A6A5",
"M c #58A6A5",
"N c #52ABA0",
"B c #54A9A2",
"V c #51ACA0",
"C c #5BA3A8",
"Z c #5DA0AA",
"A c #22C288",
"S c #25C189",
"D c #28C08A",
"F c #7283C0",
"G c #7480C2",
"H c #7284C0",
/* pixels */
"AAAAAAAAAAAAAAAAAAAAAAAAAAAAAAAA",
"AAAAAAAAAASSSSSSSSSSSSSAAAAAAAAA",
"AAAAAASSSDDD122222221DDDSSSAAAAA",
"AAAASSDD23355555555555332DDSSAAA",
"AASDD23555664889998846655532DDSA",
"SDD235568999900000009999865532DD",
"D23568990077eeeeeeeee77009986532",
"35689907eeerytttttttyreee7099865",
"54990eeeytuuuuuiiiuuuuutyeee0994",
"990eertuuiqqqqqqqqqqqqqiuutree09",
"07ertuuqqqwNNNNBBBNNNNwqqquutre7",
"eeyuuqqwNNBBmmmMMMmmmBBNNwqquuye",
"rtuqqwNBBmMMMCCCCCCCMMMmBBNwqqut",
"tuqqNBmMMCZZZppaaappZZZCMMmBNqqu",
"uqwNBmMCZZaddsssssssddaZZCMmBNwq",
"qVBmMCZpddsbnnzzzzznnbsddpZCMmBV",
"NBmMCZadsnzzxvcccccvxzznsdaZCMmB",
"BmMZpdsnzxcccggghgggcccxznsdpZMm",
"mMZpdbzzccghhfffjfffhhgcczzbdpZM",
"MZpdbzxcghfjjkkkkkkkjjfhgcxzbdpZ",
"CpdbzvchhjkkHFFFFFFFHkkjhhcvzbdp",
"ZdbzvchfjkHFGo+++++oGFHkjfhcvzbd",
"aszxchflkFG++OOOOOOO++GFklfhcxzs",
"dnzchflkFo+O&$$$$$$$&O+oFklfhczn",
"szcghjkF+OO$$#%%.%%#$$OO+Fkjhgcz",
"nxchjkFoO@$#%XX   XX%#$@OoFkjhcx",
"zcgfkHG+O$#.X -===- X.#$O+GHkfgc",
"zchjkF+O$#. -==***==- .#$O+Fkjhc",
"xchjHG+&$%X-=*<:::<*=-X%$&+GHjhc",
"vgfkFoO$#X =*::;;;::*= X#$OoFkfg",
"cgfkF+O$%X-=<:;,,,;:<=-X%$O+Fkfg",
"cgfkF+O$% =*:;,,>,,;:*= %$O+Fkfg"
};
