/* XPM */
static char *_0f2c7c210074a91ccde0c4140b940f4VG5C0iJJdzRp9xYQ[] = {
/* columns rows colors chars-per-pixel */
"32 32 76 1 ",
"  c black",
". c #3F497B",
"X c #FFE100",
"o c #536E91",
"O c #7D6BCF",
"+ c #7B6FCD",
"@ c #7C6ECD",
"# c #747FC3",
"$ c #7779C7",
"% c #757DC4",
"& c #7878C7",
"* c #7A72CB",
"= c #7974CA",
"- c #7B70CC",
"; c #7878C8",
": c #7F63D3",
"> c #7E67D1",
", c #7E68D0",
"< c #825BD7",
"1 c #805FD5",
"2 c #8453DA",
"3 c #8257D8",
"4 c #8060D4",
"5 c #2BBF8B",
"6 c #2DBF8B",
"7 c #2FBE8C",
"8 c #36BB8F",
"9 c #31BD8D",
"0 c #34BC8F",
"q c #3FB794",
"w c #37BB90",
"e c #39BA91",
"r c #3DB893",
"t c #4EAE9D",
"y c #50AC9F",
"u c #41B695",
"i c #44B497",
"p c #46B399",
"a c #45B498",
"s c #48B299",
"d c #4BB09C",
"f c #5688A3",
"g c #5E9FAB",
"h c #5F9EAC",
"j c #629BAF",
"k c #609EAC",
"l c #6E8BBB",
"z c #6B8FB8",
"x c #6C8EB8",
"c c #6E8ABC",
"v c #7184BF",
"b c #7088BD",
"n c #6597B1",
"m c #6794B4",
"M c #6992B6",
"N c #6894B4",
"B c #639AB0",
"V c #6499B1",
"C c #57A6A5",
"Z c #5AA4A7",
"A c #52ABA0",
"S c #54A9A2",
"D c #51ACA0",
"F c #5BA3A8",
"G c #5DA0AA",
"H c #68ABB1",
"J c #74BFB8",
"K c #22C288",
"L c #25C189",
"P c #28C08A",
"I c #7283C0",
"U c #7480C2",
"Y c #7284C0",
"T c #8BA6E3",
"R c #D9F0F8",
"E c white",
/* pixels */
"KKKKKKKKKKKKKKKKKKKKKKKKKKKKKKKK",
"KKKKKKKKKKLLLLLLLLLLLLLKKKKKKKKK",
"KKKKKKLLLPPP566666665PPPLLLKKKKK",
"KKKKLLPP67799999999999776PPLLKKK",
"KKLPP67999008wweeeww80099976PPLK",
"LPP67990weeeerrrrrrreeeew09976PP",
"P6790weerrqquuuuuuuuuqqrreew0976",
"790weerquuuiapppppppaiuuuqreew09",
"98eeruuuapsssssdddssssRpauuuree8",
"eeruuipsTdtttttttttttttdsspiuure",
"rquipsstttyAAAAS SAAAAytttsspiuq",
"uuassttyAASSCCC X CCCSSAAyttssau",
"ipsttyASSCZZZF   J FZZZCSSAyttsp",
"psttASCZZRGGG .fHHJ GGGFZZCSAtts",
"styASCZFGTh  .ffEHEJ khGGFZCSAyt",
"tDSCZFGgkR oo..RHHJff RkkgGFZCSD",
"ASCZFGhkjTT   .Ro    nRVjkhGFZCS",
"SCZGgkRVnTTMM .Tf  zMMTmnRjkgGZC",
"CZGgkBnnMMRxx oR H lxxRMMnnBkgGZ",
"ZGgkBnmMTTRcT oTv vvccTxzMmnBkgG",
"FgkBnNMxxTTTTI TIIIIYvTcxxMNnBkg",
"GkBnNMxTcvTIT#%%R%%#URYvTlxMNnBk",
"hjnmMxlbvTTTT$TRTT$R%TTIvblxMmnj",
"kVnMxlbvI#TTT==TT==TTT%#IvblxMnV",
"jnMzxcvI%$$=TTTTTTTT==$$%IvcxzMn",
"VmMxcvI#$&=*-@@OOO@@-*=&$#IvcxMm",
"nMzlvYU%$=*+@O,>>>,O@+*=$%UYvlzM",
"nMxcvI%$=*+O,>>:::>>,O+*=$%IvcxM",
"mMxcYU%;=-@,>:41114:>,@-=;%UYcxM",
"NzlvI#$=*@O>:11<<<11:>O@*=$#Ivlz",
"MzlvI%$=-@,>41<333<14>,@-=$%Ivlz",
"MzlvI%$=-O>:1<33233<1:>O-=$%Ivlz"
};
