/* XPM */
static char *e1a6260392df440fae3a965b93afe2838Bj4JAsKWAQhNqDb[] = {
/* columns rows colors chars-per-pixel */
"32 32 77 1 ",
"  c black",
". c #3F497B",
"X c #FFE100",
"o c #2C38A1",
"O c #3659C8",
"+ c #7D6BCF",
"@ c #7B6FCD",
"# c #7C6ECD",
"$ c #747FC3",
"% c #7779C7",
"& c #757DC4",
"* c #7878C7",
"= c #7A72CB",
"- c #7974CA",
"; c #7B70CC",
": c #7878C8",
"> c #7F63D3",
", c #7E67D1",
"< c #7E68D0",
"1 c #825BD7",
"2 c #805FD5",
"3 c #8453DA",
"4 c #8257D8",
"5 c #8060D4",
"6 c #2BBF8B",
"7 c #2DBF8B",
"8 c #2FBE8C",
"9 c #36BB8F",
"0 c #31BD8D",
"q c #34BC8F",
"w c #3FB794",
"e c #37BB90",
"r c #39BA91",
"t c #3DB893",
"y c #4EAE9D",
"u c #50AC9F",
"i c #41B695",
"p c #44B497",
"a c #46B399",
"s c #45B498",
"d c #49B19B",
"f c #4BB09C",
"g c #5688A3",
"h c #5E9FAB",
"j c #5F9EAC",
"k c #629BAF",
"l c #619CAE",
"z c #6E8BBB",
"x c #6B8FB8",
"c c #6C8EB8",
"v c #6E8ABC",
"b c #7184BF",
"n c #7088BD",
"m c #6697B2",
"M c #6794B4",
"N c #6992B6",
"B c #6894B4",
"V c #639AB0",
"C c #6598B1",
"Z c #57A6A5",
"A c #58A6A5",
"S c #52ABA0",
"D c #54A9A2",
"F c #51ACA0",
"G c #5BA3A8",
"H c #5DA0AA",
"J c #68ABB1",
"K c #74BFB8",
"L c #22C288",
"P c #25C189",
"I c #28C08A",
"U c #7283C0",
"Y c #7480C2",
"T c #7284C0",
"R c #8BA6E3",
"E c #D9F0F8",
"W c white",
/* pixels */
"LLLLLLLLLLLLLLLLLLLLLLLLLLLLLLLL",
"LLLLLLLLLLPPPPPPPPPPPPPLLLLLLLLL",
"LLLLLLPPPIII677777776IIIPPPLLLLL",
"LLLLPPII78800000000000887IIPPLLL",
"LLPII78000qq9eerrree9qq00087IIPL",
"PII7800qerrrrtttttttrrrreq0087II",
"I780qerrttwwiiiiiiiiiwwttrreq087",
"80qerrtwiiipsaaaaaaaspiiiwtrreq0",
"09rrtiiisadddddfffdddddasiiitrr9",
"rrtiipaddfyyyyyyEyyyyyyfddapiitr",
"twipaddyyyRSSSSDDDSSESuyyyddapiw",
"iisddyyuSSDDZZZAAAZZZDDSSuyyddsi",
"padyyuSDDZAEAGEGGGGGAEARDDSuyyda",
"adyySDZAAGHRHhhjjjhhHHEGAAZDSyyd",
"dyuSDZAGHHjElkkkk kklERHHGAZDSuy",
"yFDZAGHhRlkRRCmm X CCEEllhHGAZDF",
"SDZAGHjlkCERRBN   K MRRCkljHGAZD",
"DZAHhlkCmMRNEx .gJJK ERMRCklhHAZ",
"ZAHhlVmmNNRRER.ggWJWKRRENmmVlhHA",
"AHhlVmMNEczRRR..gJJKgRRRxNMmVlhH",
"GhlVmBNccvbbRRO..R  E RvEcNBmVlh",
"HlVmBNczvbRRRREoERRoEORRvzcNBmVl",
"jkmMNcznbUYRRROORRooRRRUbnzcNMmk",
"lCmNcznbU$&%:RRRRRRRR%&$UbnzcNmC",
"kmNxcvbU&%%--=;;@;;=--%%&UbvcxNm",
"CMNcvbU$%*-=;##+++##;=-*%$UbvcNM",
"mNxzbTY&%-=@#+<,,,<+#@=-%&YTbzxN",
"mNcvbU&%-=@+<,,>>>,,<+@=-%&UbvcN",
"MNcvTY&:-;#<,>52225>,<#;-:&YTvcN",
"BxzbU$%-=#+,>2211122>,+#=-%$Ubzx",
"NxzbU&%-;#<,521444125,<#;-%&Ubzx",
"NxzbU&%-;+,>214434412>,+;-%&Ubzx"
};
