/* XPM */
static char *_179533d572941308b446b0630a9d9f3NJjMtYA9GGRekIRN[] = {
/* columns rows colors chars-per-pixel */
"32 32 69 1 ",
"  c #3659C8",
". c #7D6BCF",
"X c #7B6FCD",
"o c #7C6ECD",
"O c #747FC3",
"+ c #7779C7",
"@ c #757DC4",
"# c #7878C7",
"$ c #7A72CB",
"% c #7974CA",
"& c #7B70CC",
"* c #7878C8",
"= c #7F63D3",
"- c #7E67D1",
"; c #7E68D0",
": c #825BD7",
"> c #805FD5",
", c #8453DA",
"< c #8257D8",
"1 c #8060D4",
"2 c #2BBF8B",
"3 c #2DBF8B",
"4 c #2FBE8C",
"5 c #36BB8F",
"6 c #31BD8D",
"7 c #34BC8F",
"8 c #3FB794",
"9 c #37BB90",
"0 c #39BA91",
"q c #3DB893",
"w c #4EAE9D",
"e c #50AC9F",
"r c #41B695",
"t c #44B497",
"y c #46B399",
"u c #45B498",
"i c #49B19B",
"p c #4BB09C",
"a c #5E9FAB",
"s c #5F9EAC",
"d c #629BAF",
"f c #619CAE",
"g c #6E8BBB",
"h c #6B8FB8",
"j c #6C8EB8",
"k c #6E8ABC",
"l c #7184BF",
"z c #7088BD",
"x c #6697B2",
"c c #6794B4",
"v c #6992B6",
"b c #6894B4",
"n c #6399B0",
"m c #6598B1",
"M c #57A6A5",
"N c #58A6A5",
"B c #52ABA0",
"V c #54A9A2",
"C c #51ACA0",
"Z c #5BA3A8",
"A c #5DA0AA",
"S c #22C288",
"D c #25C189",
"F c #28C08A",
"G c #7283C0",
"H c #7480C2",
"J c #7284C0",
"K c #8BA6E3",
"L c #D9F0F8",
/* pixels */
"SSSSSSSSSSSSSSSSSSSSSSSSSSSSSSSS",
"SSSSSSSSSSDDDDDDDDDDDDDSSSSSSSSS",
"SSSSSSDDDFFF233333332FFFDDDSSSSS",
"SSSSDDFF34466666666666443FFDDSSS",
"SSDFF34666775990009957766643FFDS",
"DFF3466790000qqqqqqq0000976643FF",
"F3467900qq88rrrrrrrrr88qq0097643",
"467900q8rrrtuyyyyyyyutrrr8q00976",
"6500qrrruyiiiiipppiiiiiyurrrq005",
"00qrrtyiipwwwwwwwwwwwwwpiiytrrq0",
"q8rtyiiwwweBBBBVVVBBBBewwwiiytr8",
"rruiiwweBBVVMMMNNLMMMVVBBewwiiur",
"tyiwweBVVMNNNZZZZZZZNNNMVVBewwiy",
"yiwwBVMNNZAAAaasssaaAAAZNNMVBwwi",
"iweBVMNZAAsffddLddddffsAAZNMVBew",
"wCVMNZAaffdnmmxxxLxmmndffaAZNMVC",
"BVMNZAsfdmxxcbvvvLvLcxxmdfsAZNMV",
"VMNAafdmxcvvvKhhLLhhvvvcxmdfaANM",
"MNAafnxxvvhjjgggLLggjjhvvxxnfaAN",
"NAafnxcvhjgkkl KKLLlkkgjhvcxnfaA",
"Zafnxbvjjkll  KKKK  Jllkjjvbxnfa",
"AfnxbvjgklJGHO    @OHGJlkgjvbxnf",
"sdxcvjgzlGH@@+++++++@@HGlzgjvcxd",
"fmxvjgzlGO@+*%%%%%%%*+@OGlzgjvxm",
"dxvhjklG@++%%$&&X&&$%%++@Glkjhvx",
"mcvjklGO+#%$&oo...oo&$%#+OGlkjvc",
"xvhglJH@+%$Xo.;---;.oX$%+@HJlghv",
"xvjklG@+%$X.;--===--;.X$%+@Glkjv",
"cvjkJH@*%&o;-=1>>>1=-;o&%*@HJkjv",
"bhglGO+%$o.-=>>:::>>=-.o$%+OGlgh",
"vhglG@+%&o;-1>:<<<:>1-;o&%+@Glgh",
"vhglG@+%&.-=>:<<,<<:>=-.&%+@Glgh"
};
