/* XPM */
static char *_56b6c0e7df7474ab50a61299507411a3W8zMHSV6drW7cdr[] = {
/* columns rows colors chars-per-pixel */
"32 32 108 2 ",
"   c black",
".  c #0C0707",
"X  c gray3",
"o  c #160D0D",
"O  c #101010",
"+  c #1F1313",
"@  c #181818",
"#  c #201010",
"$  c #291919",
"%  c #341A1A",
"&  c #331F1F",
"*  c #341F1F",
"=  c #202020",
"-  c #282828",
";  c #3B2525",
":  c #3C2525",
">  c gray19",
",  c gray22",
"<  c #452B2B",
"1  c #4E3131",
"2  c #573737",
"3  c #5F3D3D",
"4  c #603D3D",
"5  c #735104",
"6  c gray25",
"7  c #484848",
"8  c #505050",
"9  c #585858",
"0  c #7B4F4F",
"q  c #606060",
"w  c #686868",
"e  c gray44",
"r  c gray47",
"t  c #AF7A07",
"y  c #BE8408",
"u  c #EBA20B",
"i  c #F4AA11",
"p  c #F5AF2F",
"a  c #F6B42F",
"s  c #F7B93E",
"d  c #F9C35C",
"f  c #FAC86B",
"g  c #7D6BCF",
"h  c #7C6ECD",
"j  c #747FC3",
"k  c #7779C7",
"l  c #757DC4",
"z  c #7A72CB",
"x  c #7974CA",
"c  c #7B70CC",
"v  c #7878C8",
"b  c #7F63D3",
"n  c #7E67D1",
"m  c #7E68D0",
"M  c #825BD7",
"N  c #815FD5",
"B  c #8453DA",
"V  c #8257D8",
"C  c #8060D4",
"Z  c #2BBF8B",
"A  c #2DBF8B",
"S  c #2FBE8C",
"D  c #36BB8F",
"F  c #31BD8D",
"G  c #34BC8F",
"H  c #3FB794",
"J  c #37BB90",
"K  c #39BA91",
"L  c #3DB893",
"P  c #4EAE9D",
"I  c #50AC9F",
"U  c #43B597",
"Y  c #44B497",
"T  c #46B399",
"R  c #45B498",
"E  c #49B19B",
"W  c #4BB09C",
"Q  c #5E9FAB",
"!  c #5F9EAC",
"~  c #629BAF",
"^  c #619CAE",
"/  c #6E8BBB",
"(  c #6B8FB8",
")  c #6C8EB8",
"_  c #6E8ABC",
"`  c #7184BF",
"'  c #7088BD",
"]  c #6597B1",
"[  c #6794B4",
"{  c #6992B6",
"}  c #6894B4",
"|  c #639AB0",
" . c #6499B1",
".. c #57A6A5",
"X. c #59A4A6",
"o. c #52ABA0",
"O. c #55A8A3",
"+. c #51ACA0",
"@. c #5AA3A8",
"#. c #5CA1A9",
"$. c #22C288",
"%. c #25C189",
"&. c #28C08A",
"*. c #7283C0",
"=. c #7480C2",
"-. c #7284C0",
";. c #808080",
":. c #FBD389",
/* pixels */
"$.$.$.$.$.$.$.$.$.$.$.$.$.$.$.$.$.$.$.$.$.$.$.$.$.$.$.$.$.$.$.$.",
"$.$.$.$.$.$.$.$.$.$.%.%.%.%.%.%.%.%.%.%.%.%.%.$.$.$.$.$.$.$.$.$.",
"$.$.$.$.$.$.%.%.%.&.&.&.Z A A A A A A A Z &.&.&.%.%.%.$.$.$.$.$.",
"$.$.$.$.%.%.&.&.A S S F F .   9 e ;.e w F F S S A &.&.%.%.$.$.$.",
"$.$.%.&.&.A S F F F G G % : 1 . > q 6 @ 8 G G F F F S A &.&.%.$.",
"%.&.&.A S F F G J K K K # : < # w X @ e 7 r K K J G F F S A &.&.",
"&.A S F G J K K L L H o 0   o < +       8 q > L L K K J G F S A ",
"S F G J K K L H U U U . & o   o &         7 r U U H L K K J G F ",
"F D K K L U U U R T   :   : 1 . : $         > = R U U U L K K D ",
"K K L U U Y T E E W   : $ & < $ : $         9 q E E T Y U U L K ",
"L H U Y T E E P P a   : 4 & < & : .         - r P P E E T Y U H ",
"U U R E E P P I o.s f d f & : & : o         @ O o.I P P E E R U ",
"Y T E P P I o.O.O.y + u : & $ : :           - = O.O.o.I P P E T ",
"T E P P o.O...X.X.@.o : : $ $ : <           = - X.X...O.o.P P E ",
"E P I o.O...X.@.#.#.o 2 : & &   ; $         > > #.@.X...O.o.I P ",
"P +.O...X.@.#.Q ^ ^ o : : & & + : +         - - ^ Q #.@.X...O.+.",
"o.O...X.@.#.! ^ ~  .o : 1 : .   < +         @ = ~ ^ ! #.@.X...O.",
"O...X.#.Q ^ ~  .] [ $ <   & $ d : +         - > ]  .~ ^ Q #.X...",
"..X.#.Q ^ | ] ] { { + 2 : : & i u +         , = { ] ] | ^ Q #.X.",
"X.#.Q ^ | ] [ { ( ) + 1 : : $ a % .         O - ( { [ ] | ^ Q #.",
"@.Q ^ | ] } { ) ) _ + < + & : : :           @ - ) ) { } ] | ^ Q ",
"#.^ | ] } { ) / _ ` + 1 : o & : 2 o         O @ _ / ) { } ] | ^ ",
"! ~ ] [ { ) / ' ` *.. 1 : & 2 . 1 +         @ - ` ' / ) { [ ] ~ ",
"^  .] { ) / ' ` *.j . 1 . : 1 + 1 &         @ O *.` ' / ) { ]  .",
"~ ] { ( ) _ ` *.l k . 1 & : 1 $ < $         @ - l *.` _ ) ( { ] ",
" .[ { ) _ ` *.j k :.. d : : $ . : $         = = k j *.` _ ) { [ ",
"] { ( / ` -.=.l k a p u t : 2 3 : $         > @ k l =.-.` / ( { ",
"] { ) _ ` *.l k x 5   : : : < * :           - @ x k l *.` _ ) { ",
"[ { ) _ -.=.l v x c   < . : < $ : $         > - x v l =.-._ ) { ",
"} ( / ` *.j k x z h   $   o .     $         = > z x k j *.` / ( ",
"{ ( / ` *.l k x c h m n C N M V V V M N C n m h c x k l *.` / ( ",
"{ ( / ` *.l k x c g n b N M V V B V V M N b n g c x k l *.` / ( "
};
