/* XPM */
static char *result[] = {
/* columns rows colors chars-per-pixel */
"32 32 206 2 ",
"   c black",
".  c #020101",
"X  c #0C0707",
"o  c #160D0D",
"O  c #1F1313",
"+  c #291919",
"@  c #341A1A",
"#  c #311F1F",
"$  c #331F1F",
"%  c #3B2525",
"&  c #3C2525",
"*  c #452B2B",
"=  c #4E3131",
"-  c #573737",
";  c #603D3D",
":  c #735104",
">  c #724949",
",  c #7B4F4F",
"<  c #916605",
"1  c #AF7A07",
"2  c #BE8408",
"3  c #EBA20B",
"4  c #F4AA11",
"5  c #F5AF2F",
"6  c #F6B42F",
"7  c #F4B33E",
"8  c #F7B93E",
"9  c #F8BC4D",
"0  c #F8BE4D",
"q  c #F9C35C",
"w  c #FAC86B",
"e  c #7D6BCF",
"r  c #7C6ECD",
"t  c #7C6CCE",
"y  c #747FC3",
"u  c #767BC5",
"i  c #7778C7",
"p  c #7779C7",
"a  c #767AC6",
"s  c #777AC6",
"d  c #757DC4",
"f  c #767CC5",
"g  c #757EC4",
"h  c #7A72CB",
"j  c #7975C9",
"k  c #7876C9",
"l  c #7974CA",
"z  c #7B70CC",
"x  c #7878C8",
"c  c #7F63D3",
"v  c #7E67D1",
"b  c #7F64D2",
"n  c #7E68D0",
"m  c #825AD7",
"M  c #825BD7",
"N  c #815FD5",
"B  c #815DD6",
"V  c #8453DA",
"C  c #8354D9",
"Z  c #8356D8",
"A  c #8257D8",
"S  c #8060D4",
"D  c #2BBF8B",
"F  c #2CBF8B",
"G  c #2DBF8B",
"H  c #2EBE8C",
"J  c #2FBE8C",
"K  c #2EBF8C",
"L  c #36BB8F",
"P  c #31BD8D",
"I  c #32BD8D",
"U  c #30BE8D",
"Y  c #31BE8D",
"T  c #33BC8E",
"R  c #32BD8E",
"E  c #33BD8E",
"W  c #34BC8F",
"Q  c #35BC8F",
"!  c #3EB794",
"~  c #3FB794",
"^  c #36BB90",
"/  c #37BB90",
"(  c #38BA90",
")  c #38BB90",
"_  c #38BA91",
"`  c #39BA91",
"'  c #3ABA91",
"]  c #3AB992",
"[  c #3BB992",
"{  c #3CB992",
"}  c #3DB893",
"|  c #3EB893",
" . c #4CAF9C",
".. c #4CAF9D",
"X. c #4DAF9D",
"o. c #4EAE9D",
"O. c #4EAD9E",
"+. c #4FAD9F",
"@. c #4EAE9E",
"#. c #50AC9F",
"$. c #40B794",
"%. c #41B695",
"&. c #40B795",
"*. c #42B596",
"=. c #43B596",
"-. c #43B597",
";. c #42B696",
":. c #44B497",
">. c #44B597",
",. c #46B398",
"<. c #47B299",
"1. c #46B399",
"2. c #45B498",
"3. c #49B19A",
"4. c #49B19B",
"5. c #4AB09B",
"6. c #4BB09B",
"7. c #48B29A",
"8. c #4BB09C",
"9. c #5E9FAB",
"0. c #5F9FAB",
"q. c #5F9EAC",
"w. c #639AAF",
"e. c #629BAF",
"r. c #609DAD",
"t. c #609EAC",
"y. c #619CAE",
"u. c #6D8BBB",
"i. c #6E8ABB",
"p. c #6E8BBB",
"a. c #6B8EB8",
"s. c #6B8FB8",
"d. c #6C8DB9",
"f. c #6C8EB8",
"g. c #6C8EB9",
"h. c #6D8CBA",
"j. c #6F88BD",
"k. c #6E8ABC",
"l. c #7087BD",
"z. c #7184BF",
"x. c #7185BF",
"c. c #7086BE",
"v. c #7186BE",
"b. c #7087BE",
"n. c #7186BF",
"m. c #7088BD",
"M. c #6597B1",
"N. c #6795B3",
"B. c #6597B2",
"V. c #6696B2",
"C. c #6697B2",
"Z. c #6696B3",
"A. c #6794B4",
"S. c #6795B4",
"D. c #6893B5",
"F. c #6993B5",
"G. c #6A91B6",
"H. c #6A90B7",
"J. c #6A91B7",
"K. c #6992B6",
"L. c #6894B4",
"P. c #6399B0",
"I. c #639AB0",
"U. c #6498B1",
"Y. c #6499B1",
"T. c #56A7A4",
"R. c #57A7A4",
"E. c #57A6A5",
"W. c #58A6A5",
"Q. c #59A4A6",
"!. c #58A5A6",
"~. c #59A4A7",
"^. c #51ABA0",
"/. c #52ABA0",
"(. c #53AAA1",
"). c #52ABA1",
"_. c #54A9A2",
"`. c #55A8A3",
"'. c #51ACA0",
"]. c #5BA2A8",
"[. c #5AA3A8",
"{. c #5BA3A8",
"}. c #5CA1A9",
"|. c #5CA2A9",
" X c #5DA0AA",
".X c #5EA0AB",
"XX c #22C288",
"oX c #23C288",
"OX c #25C189",
"+X c #26C189",
"@X c #27C189",
"#X c #24C288",
"$X c #28C08A",
"%X c #29C08A",
"&X c #2AC08A",
"*X c #2AC08B",
"=X c #2BC08B",
"-X c #7381C1",
";X c #7283C0",
":X c #7382C1",
">X c #7480C2",
",X c #7480C3",
"<X c #7284C0",
"1X c #FBD389",
"2X c #FCDEA7",
"3X c #FDE9C5",
/* pixels */
"XXXXXXXXXXXXXXXXXXXXXXXXXXXXXXXXXXXXXXXXXXXXXXXXXXXXXXXXXXXXXXXX",
"XXXXXXXXXXXXXXXXXXoX#XOX+X+X@X@X@X@X@X+X+XOX#XoXXXXXXXXXXXXXXXXX",
"XXXXXXXXXXXX#XOX@X$X%X*XD F F G G G F F D *X%X$X@XOX#XXXXXXXXXXX",
"XXXXXXoXOX@X%X=XF K J U Y P o X       o Y U J K F =X%X@XOXoXXXXX",
"XXoXOX$X&XF H U I E W Q L + * & $ & = &   Q W E I U H F &X$XOXoX",
"OX$X*XG J P T Q / ( ` ] o $ * & $ & * & +   ` ( / Q T P J G *X$X",
"&XG J R W ^ _ ' { } ! o , $ & *   o * & + *   } { ' _ ^ W R J G ",
"J P W / ` [ } ~ %.;.-.X > $ & $ o . o & $ *   ;.%.~ } [ ` / W P ",
"E L ` [ | &.;.-.2.1.  & - $ & . $ & X & & $ &   2.-.;.&.| [ ` L ",
") ] } $.*.:.,.7.4.8.  & - $   + & $ + O & & &   4.7.,.:.*.$.} ] ",
"{ ~ %.:.,.7.5. .o.6   & ; $ . * & $ * o & $ & + o. .5.7.,.:.%.~ ",
"&.=.2.7.5...O.#./.8 4 8 9 w q w 1X$ & o & $ & + /.#.O...5.7.2.=.",
">.1.3. .@.#.)._.`.2 O & - X 3 & & $ + O & & & o `._.).#.@. .3.1.",
"<.5.X.+./._.T.W.Q.[.o & - + & < 4 + &   & $ * $ Q.W.T._./.+.X.5.",
"6.o.#.(.`.E.~.{.}..Xo - & $ & & & $   , & = % $ }.{.~.E.`.(.#.o.",
"@.'._.T.!.[.}.9.t.y.o & - $ + & & $ O * & = & & t.9.}.[.!.T._.'.",
"^._.R.Q.]. Xq.y.w.U.o & = $ & * & X   = & * * + w.y.q. X].Q.R._.",
"_.R.~.|.9.r.e.Y.C.S.+ * & + . . & + o $ q * & O C.Y.e.r.9.|.~.R.",
"R.~.}.0.y.I.M.N.D.G.O - & +   * & & $ q 4 3 # . D.N.M.I.y.0.}.~.",
"Q.|.0.y.P.C.A.K.s.d.O = + $ + * & & + $ 6 = @ . s.K.A.C.P.y.0.|.",
"].9.y.P.V.L.J.f.h.k.O * & + X O & $ & $ & & &   h.f.J.L.V.P.y.9.",
" Xr.I.C.L.J.g.p.j.v.O = & $ & & o $ & + & $ - o j.p.g.J.L.C.I.r.",
"q.e.M.A.J.g.p.m.x.:XX = & $ & * & $ X + & + = o x.m.p.g.J.A.M.e.",
"y.Y.N.K.f.p.m.z.-Xy X = & + + X & & = o o O = O -Xz.m.p.f.K.N.Y.",
"w.C.D.s.h.j.x.-Xg u X = & $ * 2X3X& = $ X O * O g -Xx.j.h.s.D.C.",
"U.S.G.d.k.v.:Xy u 1XX = & $ q $ $ + X o & O & O u y :Xv.k.d.G.S.",
"B.D.s.u.l.<X,Xf i 6 7 w 0 5 3 1 1 & - O $ &   + i f ,X<Xl.u.s.D.",
"Z.K.g.k.n.:Xg s k :   &   $ * & & & * & $   $ O k s g :Xn.k.g.K.",
"A.H.h.j.<X>Xf x l z   * & + o X & & * * O + & o l x f >X<Xj.h.H.",
"L.s.u.b.;Xy a k h r . + o O   o X . . .   . o   h k a y ;Xb.u.s.",
"D.s.p.c.:Xg p j z t n b S B m A Z A m B S b n t z j p g :Xc.p.s.",
"F.a.i.v.-Xd p l z e v c N M A C V C A M N c v e z l p d -Xv.i.a."
};
