/* XPM */
static char *_18c6a4ac9ae4eebaa52d1f012cecec9izYZck3nvgsHhu2V[] = {
/* columns rows colors chars-per-pixel */
"32 32 107 2 ",
"   c black",
".  c #0C0707",
"X  c gray3",
"o  c #160D0D",
"O  c #101010",
"+  c #1F1313",
"@  c #181818",
"#  c #2A1919",
"$  c #341A1A",
"%  c #331F1F",
"&  c #341F1F",
"*  c #202020",
"=  c #282828",
"-  c #3B2525",
";  c #3C2525",
":  c gray19",
">  c gray22",
",  c #452B2B",
"<  c #4E3131",
"1  c #573737",
"2  c #5F3D3D",
"3  c #603D3D",
"4  c #735104",
"5  c gray25",
"6  c #484848",
"7  c #505050",
"8  c #585858",
"9  c #724949",
"0  c #7B4F4F",
"q  c #606060",
"w  c #686868",
"e  c gray44",
"r  c gray47",
"t  c #BE8408",
"y  c #EBA20B",
"u  c #F4AA11",
"i  c #F5AF2F",
"p  c #F6B42F",
"a  c #F7B93E",
"s  c #F9C35C",
"d  c #FAC86B",
"f  c #7D6BCF",
"g  c #7C6ECD",
"h  c #747FC3",
"j  c #7779C7",
"k  c #757DC4",
"l  c #7A72CB",
"z  c #7974CA",
"x  c #7B70CC",
"c  c #7878C8",
"v  c #7F63D3",
"b  c #7E67D1",
"n  c #7E68D0",
"m  c #825BD7",
"M  c #815FD5",
"N  c #8453DA",
"B  c #8257D8",
"V  c #8060D4",
"C  c #2BBF8B",
"Z  c #2DBF8B",
"A  c #2FBE8C",
"S  c #36BB8F",
"D  c #31BD8D",
"F  c #34BC8F",
"G  c #3FB794",
"H  c #37BB90",
"J  c #39BA91",
"K  c #3DB893",
"L  c #4EAE9D",
"P  c #50AC9F",
"I  c #43B597",
"U  c #44B497",
"Y  c #46B399",
"T  c #45B498",
"R  c #49B19B",
"E  c #4BB09C",
"W  c #5E9FAB",
"Q  c #5F9EAC",
"!  c #629BAF",
"~  c #619CAE",
"^  c #6E8BBB",
"/  c #6B8FB8",
"(  c #6C8EB8",
")  c #6E8ABC",
"_  c #7184BF",
"`  c #7088BD",
"'  c #6597B1",
"]  c #6794B4",
"[  c #6992B6",
"{  c #6894B4",
"}  c #639AB0",
"|  c #6499B1",
" . c #57A6A5",
".. c #59A4A6",
"X. c #52ABA0",
"o. c #55A8A3",
"O. c #51ACA0",
"+. c #5AA3A8",
"@. c #5CA1A9",
"#. c #22C288",
"$. c #25C189",
"%. c #28C08A",
"&. c #7283C0",
"*. c #7480C2",
"=. c #7284C0",
"-. c #808080",
";. c #FBD389",
/* pixels */
"#.#.#.#.#.#.#.#.#.#.#.#.#.#.#.#.#.#.#.#.#.#.#.#.#.#.#.#.#.#.#.#.",
"#.#.#.#.#.#.#.#.#.#.$.$.$.$.$.$.$.$.$.$.$.$.$.#.#.#.#.#.#.#.#.#.",
"#.#.#.#.#.#.$.$.$.%.%.%.C Z Z Z Z Z Z Z C %.%.%.$.$.$.#.#.#.#.#.",
"#.#.#.#.$.$.%.%.Z A A D .   > 8 e -.e w D D A A Z %.%.$.$.#.#.#.",
"#.#.$.%.%.Z A D D D F F # # 5 7 : q 5 @ 7 F F D D D A Z %.%.$.#.",
"$.%.%.Z A D D F H J J J o # = O w X @ e 6 r J J H F D D A Z %.%.",
"%.Z A D F H J J K K G o 0 , +           7 q : K K J J H F D A Z ",
"A D F H J J K G I I I . 9 , %             6 r I I G K J J H F D ",
"D S J J K I I I T Y   ; 1 % ; #             : * T I I I K J J S ",
"J J K I I U Y R R E   ; 1 ; ; #             8 q R R Y U I I K J ",
"K G I U Y R R L L p   ; 3 % ; .             = r L L R R Y U I G ",
"I I T R R L L P X.a d s 1 % ; o             @ O X.P L L R R T I ",
"U Y R L L P X.o.o.t + ; 1 ; ;               = * o.o.X.P L L R Y ",
"Y R L L X.o. .....+.o ; 1 % ,               * = .... .o.X.L L R ",
"R L P X.o. ...+.@.@.o 1 ; < - #             : : @.+... .o.X.P L ",
"L O.o. ...+.@.W ~ ~ o ; 1 < ; +             = = ~ W @.+... .o.O.",
"X.o. ...+.@.Q ~ ! | o ; ; . , +             @ * ! ~ Q @.+... .o.",
"o. ...@.W ~ ! | ' ] # , ; s ; +             = : ' | ! ~ W @... .",
" ...@.W ~ } ' ' [ [ + 1 ; u % +             > * [ ' ' } ~ W @...",
"..@.W ~ } ' ] [ / ( + < ; p $ .             O = / [ ] ' } ~ W @.",
"+.W ~ } ' { [ ( ( ) + , ; ; ;               @ = ( ( [ { ' } ~ W ",
"@.~ } ' { [ ( ^ ) _ + < o % 1 o             O @ ) ^ ( [ { ' } ~ ",
"Q ! ' ] [ ( ^ ` _ &.. < ; # < +             @ = _ ` ^ ( [ ] ' ! ",
"~ | ' [ ( ^ ` _ &.h . < ; + < %             @ O &._ ` ^ ( [ ' | ",
"! ' [ / ( ) _ &.k j . < ; # , #             @ = k &._ ) ( / [ ' ",
"| ] [ ( ) _ &.h j ;.. < ; # ; #             * * j h &._ ) ( [ ] ",
"' [ / ^ _ =.*.k j p i y ; 2 ; #             : @ j k *.=._ ^ / [ ",
"' [ ( ) _ &.k j z 4   ; ; & ;               = @ z j k &._ ) ( [ ",
"] [ ( ) =.*.k c z x   , ; # ; #             : = z c k *.=.) ( [ ",
"{ / ^ _ &.h j z l g   # o .   #             * : l z j h &._ ^ / ",
"[ / ^ _ &.k j z x g n b V M m B B B m M V b n g x z j k &._ ^ / ",
"[ / ^ _ &.k j z x f b v M m B B N B B m M v b f x z j k &._ ^ / "
};
