/* XPM */
static char *e6b0e23591444fb6a9179ff30c309279u90AIwDX5pa0nglr[] = {
/* columns rows colors chars-per-pixel */
"32 32 193 2 ",
"   c #020101",
".  c #0C0403",
"X  c #000A07",
"o  c #0D0B0B",
"O  c #150303",
"+  c #130A06",
"@  c #180907",
"#  c #1B0B09",
"$  c #05140E",
"%  c #19130E",
"&  c #0F0F1A",
"*  c #041612",
"=  c #081919",
"-  c #191A14",
";  c #2B070C",
":  c #230D0A",
">  c #32090D",
",  c #25140C",
"<  c #2A140D",
"1  c #2C180D",
"2  c #31110D",
"3  c #30180D",
"4  c #271915",
"5  c #321C10",
"6  c #25251C",
"7  c #131320",
"8  c #171A29",
"9  c #231C23",
"0  c #211E38",
"q  c #0D2725",
"w  c #072924",
"e  c #0A2824",
"r  c #152626",
"t  c #1D2B22",
"y  c #192529",
"u  c #1D2628",
"i  c #123725",
"p  c #113C2E",
"a  c #192731",
"s  c #1B2C33",
"d  c #2C2F22",
"f  c #24292A",
"g  c #372727",
"h  c #353829",
"j  c #272E35",
"k  c #283633",
"l  c #313536",
"z  c #5F0005",
"x  c #5E010A",
"c  c #470912",
"v  c #481619",
"b  c #531518",
"n  c #60000D",
"m  c #750B0F",
"M  c #6B0A16",
"N  c #691618",
"B  c #7A191C",
"V  c #56261B",
"C  c #6C2D1C",
"Z  c #7B221D",
"A  c #521E26",
"S  c #472625",
"D  c #592624",
"F  c #4F3B2B",
"G  c #5F3025",
"H  c #6C2A2E",
"J  c #772B24",
"K  c #6F3E2E",
"L  c #753226",
"P  c #7D3428",
"I  c #03493E",
"U  c #1D4D34",
"Y  c #374536",
"T  c #554B38",
"R  c #7C4B27",
"E  c #6A4536",
"W  c #343E40",
"Q  c #194848",
"!  c #2E5A40",
"~  c #016653",
"^  c #006852",
"/  c #2E6442",
"(  c #3F4D6E",
")  c #275C61",
"_  c #196861",
"`  c #226061",
"'  c #3C667A",
"]  c #2E7271",
"[  c #41474A",
"{  c #4C5B5F",
"}  c #426645",
"|  c #5C634D",
" . c #6F6D50",
".. c #797655",
"X. c #414B6F",
"o. c #4A6F7E",
"O. c #6C6D71",
"+. c #756F70",
"@. c #66767C",
"#. c #832925",
"$. c #962623",
"%. c #833329",
"&. c #8F3028",
"*. c #843B2A",
"=. c #8A3D2B",
"-. c #923B2D",
";. c #9C3E31",
":. c #A03930",
">. c #864A2A",
",. c #8E502D",
"<. c #91502F",
"1. c #984331",
"2. c #9B5835",
"3. c #A34433",
"4. c #A34935",
"5. c #AA4F35",
"6. c #AB4D36",
"7. c #B8583B",
"8. c #AC6236",
"9. c #B6683C",
"0. c #C76B3E",
"q. c #8F5B43",
"w. c #917955",
"e. c #B7704D",
"r. c #CB6641",
"t. c #D86C43",
"y. c #DB7B43",
"u. c #00896D",
"i. c #008C75",
"p. c #08897B",
"a. c #1F857D",
"s. c #00957D",
"d. c #009879",
"f. c #23847F",
"g. c #85815D",
"h. c #9D9A6F",
"j. c #B29970",
"k. c #B0B07D",
"l. c #504F8A",
"z. c #4E5186",
"x. c #526695",
"c. c #6664AE",
"v. c #6C66B7",
"b. c #7976CF",
"n. c #757BCB",
"m. c #7878CE",
"M. c #7F6CD4",
"N. c #7C72D1",
"B. c #865DDC",
"V. c #8959DE",
"C. c #8267D7",
"Z. c #816AD6",
"A. c #8363D9",
"S. c #8A53E1",
"D. c #129386",
"F. c #2C9492",
"G. c #00AE8F",
"H. c #00B18A",
"J. c #00BD8D",
"K. c #11AF9F",
"L. c #1CA99C",
"P. c #00B797",
"I. c #00BA93",
"U. c #00B39B",
"Y. c #16AFA0",
"T. c #1AAEA0",
"R. c #2DA5A1",
"E. c #25ABA3",
"W. c #2CAAA5",
"Q. c #34A7A7",
"!. c #38A6A7",
"~. c #30A9A5",
"^. c #3CA5AA",
"/. c #49859C",
"(. c #6B8287",
"). c #739092",
"_. c #4D83A1",
"`. c #499FAF",
"'. c #4C9EB0",
"]. c #5996B7",
"[. c #539AB4",
"{. c #5D93BA",
"}. c #648DBE",
"|. c #6190BC",
" X c #45A1AD",
".X c #7DA5A7",
"XX c #00C484",
"oX c #00C189",
"OX c #6D85C5",
"+X c #668BC0",
"@X c #6988C2",
"#X c #7180C8",
"$X c #CBB883",
/* pixels */
"XXXXXXXXXXXXXXXXXXXXXXXXXXXXXXXXXXXXXXXXXXXXXXXXXXXXXXXXXXXXXXXX",
"XXXXXXXXXXXXXXXXXXXXXXXXXXXXXXXXXXXXXXXXXXXXXXXXXXXXXXXXXXXXXXXX",
"XXXXXXXXXXXXXXXXXXXXXXXXXXXXXXXXXXXXXXXXXXXXXXXXXXXXXXXXXXXXXXXX",
"XXXXXXXXXXXXXXXXXXoXoXoXoXoXoXoXoXoXoXoXoXoXoXoXXXXXXXXXXXXXXXXX",
"XXXXXXXXXXXXoXoXoXoXJ.J.J.J.J.J.J.J.J.J.J.J.J.J.oXoXoXXXXXXXXXXX",
"XXXXXXXXoXoXJ.J.J.J.J.J.J.J.I.I.I.I.I.J.J.J.J.J.J.J.J.oXoXXXXXXX",
"XXXXoXoXJ.J.J.J.J.I.I.I.I.I.u.* * u.I.I.u.* * u.J.J.J.J.J.oXoXXX",
"oXoXJ.J.J.J.I.I.I.P.P.P.G.s.~ , , ~ i.i.~ , , ^ d.H.I.J.J.J.J.oX",
"oXJ.J.J.I.I.P.P.P.P.P.P.s.Q d >.R t w w t R >.d I s.P.I.I.J.J.J.",
"J.J.I.I.P.P.P.P.P.U.U.U.p.= 5 8.9.V : : V 9.8.5 = i.P.P.P.I.I.J.",
"J.I.I.P.P.P.U.U.U.U.K.T.D.q , ,.7.1.P J =.r.2.< e D.U.P.P.P.I.I.",
"I.P.P.P.U.U.U.Y.L.D.a.f._ u v =.4.*.%.;.3.1.G 4 r _ p.U.U.P.P.P.",
"P.P.P.U.U.K.T.E.F.Q q q - v #.;.P < < %.%.2 o g g r e K.U.U.P.P.",
"P.U.U.U.T.E.R.F.` y f f g N $.:.L , 1 *.*.3 4 E E %   E.T.U.U.U.",
"U.U.K.E.W.~.F.Q r [ (.).+.H m &.1.*.>.1.6.,.2.9.>.,   ~.W.E.K.U.",
"U.Y.E.W.Q.] ) u W @..X.X@.D z Z 3.6.7.6.7.0.y.y.<.1   !.Q.W.E.Y.",
"T.E.~.!.^.= u { (.(.o.] Y v x B -.1.6.3.6.7.r.t.<.1    X^.!.~.E.",
"E.~.!.^. X= u { @.O.[ w * 4 b N B #.%.J L L *.=.G f a `. X^.!.~.",
"~.!. X X'./.' s 9 A v + $ p h v n M b 2 : # O O 9 ' /.[.'. X X!.",
"!.^. X'.[./.' u 2 M x O X i Y g b M c     . % - s o._.].[.'. X^.",
"^. X'.[.].a j T q.4.Z @   > S Y T J x . + C 2.w.| k a ].].[.'. X",
" X`.[.].].  6 g.j.q.V +   ; S ! } E V . + C e.$Xh.d   {.].].[.`.",
" X'.].].{.  d h.j.F # . X = p U / } Y $   : T $Xk.h   }.{.].].'.",
"'.[.].{.}.y l  . .j 8 X o t k i U } Y - X 8 j ..g.l 8 }.}.{.].[.",
"[.].].|.}.x.( 6 6 z.l.& # D D % - E K , & l.z.6 6 X.x.@X}.|.].].",
"[.].{.}.+XOXx.& 7 c.v.0 : N N O # P %.< 0 v.c.7 & x.OXOX+X}.{.].",
"].].|.}.@XOX#Xn.m.b.N.M.M.Z.C.C.C.C.C.Z.M.M.N.b.m.n.#XOX@X}.|.].",
"].{.}.+XOXOXn.m.b.N.M.Z.C.C.A.A.A.A.A.C.C.Z.M.N.b.m.n.OXOX+X}.{.",
"].{.}.@XOX#Xn.m.N.N.M.C.A.A.B.B.B.B.B.A.A.C.M.N.N.m.n.#XOX@X}.{.",
"].|.}.@XOXn.m.b.N.M.Z.C.A.B.V.V.V.V.V.B.A.C.Z.M.N.b.m.n.OX@X}.|.",
"].|.}.@XOXn.m.b.N.M.C.A.B.V.V.S.S.S.V.V.B.A.C.M.N.b.m.n.OX@X}.|.",
"{.}.}.OX#Xn.m.N.N.Z.C.A.B.V.S.S.S.S.S.V.B.A.C.Z.N.N.m.n.#XOX}.|."
};
