/* XPM */
static char *result[] = {
/* columns rows colors chars-per-pixel */
"32 32 203 2 ",
"   c black",
".  c #581A06",
"X  c #656565",
"o  c #972805",
"O  c #BE5433",
"+  c #B1625F",
"@  c #C67B6E",
"#  c #D2957D",
"$  c #7D6ACF",
"%  c #7D6BCF",
"&  c #7B6FCC",
"*  c #7B6FCD",
"=  c #7C6ECD",
"-  c #7C6CCE",
";  c #747FC3",
":  c #767BC5",
">  c #7778C7",
",  c #7779C7",
"<  c #767AC6",
"1  c #777AC6",
"2  c #757DC4",
"3  c #767CC5",
"4  c #757EC4",
"5  c #7878C7",
"6  c #7A72CB",
"7  c #7975C9",
"8  c #7876C9",
"9  c #7974CA",
"0  c #7B70CC",
"q  c #7878C8",
"w  c #7F62D3",
"e  c #7F63D3",
"r  c #7E66D1",
"t  c #7E67D1",
"y  c #7F64D2",
"u  c #7F65D2",
"i  c #7E68D0",
"p  c #825AD7",
"a  c #825BD7",
"s  c #815ED5",
"d  c #805FD5",
"f  c #815FD5",
"g  c #815DD6",
"h  c #8453DA",
"j  c #8354D9",
"k  c #8356D8",
"l  c #8257D8",
"z  c #8060D4",
"x  c #2BBF8B",
"c  c #2CBF8B",
"v  c #2DBF8B",
"b  c #2EBE8C",
"n  c #2FBE8C",
"m  c #2EBF8C",
"M  c #36BB8F",
"N  c #31BD8D",
"B  c #32BD8D",
"V  c #30BE8D",
"C  c #31BE8D",
"Z  c #33BC8E",
"A  c #32BD8E",
"S  c #33BD8E",
"D  c #34BC8F",
"F  c #35BC8F",
"G  c #3EB794",
"H  c #3FB794",
"J  c #36BB90",
"K  c #37BB90",
"L  c #38BA90",
"P  c #38BB90",
"I  c #38BA91",
"U  c #39BA91",
"Y  c #3ABA91",
"T  c #3AB992",
"R  c #3BB992",
"E  c #3CB992",
"W  c #3CB893",
"Q  c #3DB893",
"!  c #3EB893",
"~  c #4CAF9C",
"^  c #4DAE9D",
"/  c #4CAF9D",
"(  c #4DAF9D",
")  c #4EAE9D",
"_  c #4EAD9E",
"`  c #4FAD9E",
"'  c #4FAD9F",
"]  c #4EAE9E",
"[  c #50AC9F",
"{  c #40B794",
"}  c #40B695",
"|  c #41B695",
" . c #40B795",
".. c #42B596",
"X. c #43B596",
"o. c #43B597",
"O. c #42B696",
"+. c #44B497",
"@. c #44B597",
"#. c #46B398",
"$. c #47B299",
"%. c #46B399",
"&. c #45B498",
"*. c #48B299",
"=. c #49B19A",
"-. c #49B19B",
";. c #4AB09B",
":. c #4BB09B",
">. c #4AB19B",
",. c #48B29A",
"<. c #4BB09C",
"1. c #5E9FAB",
"2. c #5F9FAB",
"3. c #5F9EAC",
"4. c #639AAF",
"5. c #629BAF",
"6. c #609DAD",
"7. c #609EAC",
"8. c #619CAE",
"9. c #6D8BBB",
"0. c #6E8ABB",
"q. c #6E8BBB",
"w. c #6B8EB8",
"e. c #6B8FB8",
"r. c #6C8DB9",
"t. c #6C8EB8",
"y. c #6C8EB9",
"u. c #6D8CBA",
"i. c #6F88BD",
"p. c #6E8ABC",
"a. c #7087BD",
"s. c #7184BF",
"d. c #7185BF",
"f. c #7086BE",
"g. c #7186BE",
"h. c #7087BE",
"j. c #7186BF",
"k. c #7088BD",
"l. c #6597B1",
"z. c #6795B3",
"x. c #6597B2",
"c. c #6696B2",
"v. c #6697B2",
"b. c #6696B3",
"n. c #6794B4",
"m. c #6795B4",
"M. c #6893B5",
"N. c #6993B5",
"B. c #6A91B6",
"V. c #6A90B7",
"C. c #6A91B7",
"Z. c #6992B6",
"A. c #6894B4",
"S. c #6399B0",
"D. c #639AB0",
"F. c #6498B1",
"G. c #6499B1",
"H. c #56A7A4",
"J. c #57A7A4",
"K. c #57A6A5",
"L. c #58A6A5",
"P. c #59A4A6",
"I. c #58A5A6",
"U. c #59A4A7",
"Y. c #5AA4A7",
"T. c #51ABA0",
"R. c #52ABA0",
"E. c #53AAA1",
"W. c #52ABA1",
"Q. c #53AAA2",
"!. c #54A9A2",
"~. c #55A8A3",
"^. c #51ACA0",
"/. c #5BA2A8",
"(. c #5AA3A8",
"). c #5BA3A8",
"_. c #5CA1A9",
"`. c #5CA2A9",
"'. c #5DA0AA",
"]. c #5DA1AA",
"[. c #5EA0AB",
"{. c #22C288",
"}. c #23C288",
"|. c #25C189",
" X c #26C189",
".X c #27C189",
"XX c #24C288",
"oX c #28C08A",
"OX c #29C08A",
"+X c #2AC08A",
"@X c #2AC08B",
"#X c #2BC08B",
"$X c #7381C1",
"%X c #7283C0",
"&X c #7382C1",
"*X c #7480C2",
"=X c #7480C3",
"-X c #7284C0",
";X c #808080",
":X c #959595",
">X c gray65",
",X c #E0AD8B",
"<X c #EEC39A",
/* pixels */
"{.{.{.{.{.{.{.{.{.{.{.{.{.{.{.{.{.{.{.{.{.{.{.{.{.{.{.{.{.{.{.{.",
"{.{.{.{.{.{.{.{.{.}.XX|. X X.X.X.X.X.X X X|.XX}.{.{.{.{.{.{.{.{.",
"{.{.{.{.{.{.XX|..XoXOX@Xx c c v v v c c x @XOXoX.X|.XX{.{.{.{.{.",
"{.{.{.}.|..XOX#Xc m n V C N A A A A A N C V n m c #XOX.X|.}.{.{.",
"{.}.|.oX+Xc b V B S D F M K K P P P K K M F D S B V b c +XoX|.}.",
"|.oX@Xv n N Z F K L U T R E W Q Q Q W E R T U L K F Z N n v @XoX",
"+Xv n A D J I Y E Q G H } | | O.O.O.| | } H G Q E Y I J D A n v ",
"n N D K U R Q H | O.o.+.&.#.#.%.%.%.#.#.&.+.o.O.| H Q R U K D N ",
"S M U R !  .O.o.&.%.*.=.>.;.:.        ;.>.=.*.%.&.o.O. .! R U M ",
"P T Q { ..+.#.,.-.<.~ ^ ] `   <X,X,X#   ] ^ ~ <.-.,.#.+...{ Q T ",
"E H | +.#.,.;.~ ) ` [ T.W.  <X,X:X;XX   W.T.[ ` ) ~ ;.,.#.+.| H ",
" .X.&.,.;./ _ [ R.Q.!.~.H.  >X,X  ,X    H.~.!.Q.R.[ _ / ;.,.&.X.",
"@.%.=.~ ] [ W.!.~.K.I.P.Y.  :X>X,X,X#   Y.P.I.K.~.!.W.[ ] ~ =.%.",
"$.;.( ' R.!.H.L.P.(.`.].  <X,X:X:X;XX   '.].`.(.P.L.H.!.R.' ( ;.",
":.) [ E.~.K.U.)._.[.3.  <X,X,X<X;X;XX     6.3.[._.).U.K.~.E.[ ) ",
"] ^.!.H.I.(._.1.7.8.5.  ,X# ,X<X,XX + + +   5.8.7.1._.(.I.H.!.^.",
"T.!.J.P./.'.3.8.4.F.  ,X  # # ,X# @ @ + +   x.F.4.8.3.'./.P.J.!.",
"!.J.U.`.1.6.5.G.v.m.  <X    # # @ + + +   Z.M.m.v.G.5.6.1.`.U.J.",
"J.U._.2.8.D.l.z.M.B.  ,X    O O o o o .   y.e.B.M.z.l.D.8.2._.U.",
"P.`.2.8.S.v.n.Z.e.r.  ,X  h.  # O o o .   p.9.r.e.Z.n.v.S.8.2.`.",
"/.1.8.S.c.A.C.t.u.p.  <X  %X&X  ,X# @ @   j.a.p.u.t.C.A.c.S.8.1.",
"'.6.D.v.A.C.y.q.i.g.-X  *X; 4 2   ,X@   *X&X-Xg.i.q.y.C.A.v.D.6.",
"3.5.l.n.C.y.q.k.d.&X=X4 3 < , ,   # ,X  3 4 =X&Xd.k.q.y.C.n.l.5.",
"8.G.z.Z.t.q.k.s.$X; 3 1 q 8 7 9   @ #   q 1 3 ; $Xs.k.q.t.Z.z.G.",
"4.v.M.e.u.i.d.$X4 : > 8 9 6 0 0 & 0 0 6 9 8 > : 4 $Xd.i.u.e.M.v.",
"F.m.B.r.p.g.&X; : 5 7 6 0 = - % % % - = 0 6 7 5 : ; &Xg.p.r.B.m.",
"x.M.e.9.a.-X=X3 > 7 6 * - $ i t t t i $ - * 6 7 > 3 =X-Xa.9.e.M.",
"b.Z.y.p.j.&X4 1 8 6 * % i r y e w e y r i % * 6 8 1 4 &Xj.p.y.Z.",
"n.V.u.i.-X*X3 q 9 0 - i u w z f s f z w u i - 0 9 q 3 *X-Xi.u.V.",
"A.e.9.h.%X; < 8 6 = $ r w d g a p a g d w r $ = 6 8 < ; %Xh.9.e.",
"M.e.q.f.&X4 , 7 0 - i y z g p l k l p g z y i - 0 7 , 4 &Xf.q.e.",
"N.w.0.g.$X2 , 9 0 % t e f a l j h j l a f e t % 0 9 , 2 $Xg.0.w."
};
