/* XPM */
static char *result[] = {
/* columns rows colors chars-per-pixel */
"32 32 203 2 ",
"   c black",
".  c #581A06",
"X  c #656565",
"o  c #972805",
"O  c #BE5433",
"+  c #B1625F",
"@  c #C67B6E",
"#  c #D2957D",
"$  c #7D6ACF",
"%  c #7D6BCF",
"&  c #7B6FCD",
"*  c #7C6ECD",
"=  c #7C6CCE",
"-  c #747FC3",
";  c #767BC5",
":  c #7778C7",
">  c #7779C7",
",  c #767AC6",
"<  c #777AC6",
"1  c #757DC4",
"2  c #767CC5",
"3  c #757EC4",
"4  c #7878C7",
"5  c #7A72CB",
"6  c #7975C9",
"7  c #7876C9",
"8  c #7974CA",
"9  c #7B70CC",
"0  c #7878C8",
"q  c #7F62D3",
"w  c #7F63D3",
"e  c #7E66D1",
"r  c #7E67D1",
"t  c #7F64D2",
"y  c #7F65D2",
"u  c #7E68D0",
"i  c #825AD7",
"p  c #825BD7",
"a  c #815ED5",
"s  c #805FD5",
"d  c #815FD5",
"f  c #815DD6",
"g  c #8453DA",
"h  c #8354D9",
"j  c #8356D8",
"k  c #8257D8",
"l  c #8060D4",
"z  c #2BBF8B",
"x  c #2CBF8B",
"c  c #2DBF8B",
"v  c #2EBE8C",
"b  c #2FBE8C",
"n  c #2EBF8C",
"m  c #36BB8F",
"M  c #31BD8D",
"N  c #32BD8D",
"B  c #30BE8D",
"V  c #31BE8D",
"C  c #33BC8E",
"Z  c #32BD8E",
"A  c #33BD8E",
"S  c #34BC8F",
"D  c #35BC8F",
"F  c #3EB794",
"G  c #3FB794",
"H  c #36BB90",
"J  c #37BB90",
"K  c #38BA90",
"L  c #38BB90",
"P  c #38BA91",
"I  c #39BA91",
"U  c #3ABA91",
"Y  c #3AB992",
"T  c #3BB992",
"R  c #3CB992",
"E  c #3CB893",
"W  c #3DB893",
"Q  c #3EB893",
"!  c #4CAF9C",
"~  c #4DAE9D",
"^  c #4CAF9D",
"/  c #4DAF9D",
"(  c #4EAE9D",
")  c #4EAD9E",
"_  c #4FAD9E",
"`  c #4FAD9F",
"'  c #4EAE9E",
"]  c #50AC9F",
"[  c #40B794",
"{  c #40B695",
"}  c #41B695",
"|  c #40B795",
" . c #42B596",
".. c #43B596",
"X. c #43B597",
"o. c #42B696",
"O. c #44B497",
"+. c #44B597",
"@. c #46B398",
"#. c #47B299",
"$. c #46B399",
"%. c #45B498",
"&. c #48B299",
"*. c #49B19A",
"=. c #49B19B",
"-. c #4AB09B",
";. c #4BB09B",
":. c #4AB19B",
">. c #48B29A",
",. c #4BB09C",
"<. c #5E9FAB",
"1. c #5F9FAB",
"2. c #5F9EAC",
"3. c #639AAF",
"4. c #629BAF",
"5. c #609DAD",
"6. c #609EAC",
"7. c #619CAE",
"8. c #6D8BBB",
"9. c #6E8ABB",
"0. c #6E8BBB",
"q. c #6B8EB8",
"w. c #6B8FB8",
"e. c #6C8DB9",
"r. c #6C8EB8",
"t. c #6C8EB9",
"y. c #6D8CBA",
"u. c #6F88BD",
"i. c #6E8ABC",
"p. c #7087BD",
"a. c #7184BF",
"s. c #7185BF",
"d. c #7086BE",
"f. c #7186BE",
"g. c #7087BE",
"h. c #7186BF",
"j. c #7088BD",
"k. c #6597B1",
"l. c #6795B3",
"z. c #6597B2",
"x. c #6696B2",
"c. c #6697B2",
"v. c #6696B3",
"b. c #6794B4",
"n. c #6795B4",
"m. c #6893B5",
"M. c #6993B5",
"N. c #6A91B6",
"B. c #6A90B7",
"V. c #6A91B7",
"C. c #6992B6",
"Z. c #6894B4",
"A. c #6399B0",
"S. c #639AB0",
"D. c #6498B1",
"F. c #6499B1",
"G. c #56A7A4",
"H. c #57A7A4",
"J. c #57A6A5",
"K. c #58A6A5",
"L. c #59A4A6",
"P. c #58A5A6",
"I. c #59A4A7",
"U. c #5AA4A7",
"Y. c #51ABA0",
"T. c #52ABA0",
"R. c #53AAA1",
"E. c #52ABA1",
"W. c #53AAA2",
"Q. c #54A9A2",
"!. c #55A8A3",
"~. c #51ACA0",
"^. c #5BA2A8",
"/. c #5AA3A8",
"(. c #5BA3A8",
"). c #5CA1A9",
"_. c #5CA2A9",
"`. c #5DA0AA",
"'. c #5DA1AA",
"]. c #5EA0AB",
"[. c #22C288",
"{. c #23C288",
"}. c #25C189",
"|. c #26C189",
" X c #27C189",
".X c #24C288",
"XX c #28C08A",
"oX c #29C08A",
"OX c #2AC08A",
"+X c #2AC08B",
"@X c #2BC08B",
"#X c #7381C1",
"$X c #7283C0",
"%X c #7382C1",
"&X c #7480C2",
"*X c #7480C3",
"=X c #7284C0",
"-X c #808080",
";X c #959595",
":X c gray65",
">X c #E0AD8B",
",X c #EEC39A",
"<X c #F8E0BC",
/* pixels */
"[.[.[.[.[.[.[.[.[.[.[.[.[.[.[.[.[.[.[.[.[.[.[.[.[.[.[.[.[.[.[.[.",
"[.[.[.[.[.[.[.[.[.{..X}.|.|. X X X X X|.|.}..X{.[.[.[.[.[.[.[.[.",
"[.[.[.[.[.[..X}. XXXoX+Xz x x c c c x x z +XoXXX X}..X[.[.[.[.[.",
"[.[.[.{.}. XoX@Xx n b B V M Z Z Z Z Z M V B b n x @XoX X}.{.[.[.",
"[.{.}.XXOXx v B N A S D m J J L L L J J m D S A N B v x OXXX}.{.",
"}.XX+Xc b M C D J K I Y T R E W W W E R T Y I K J D C M b c +XXX",
"OXc b Z S H P U R W F G { } } o.o.o.} } { G F W R U P H S Z b c ",
"b M S J I T W G } o.X.O.%.@.@.$.        %.O.X.o.} G W T I J S M ",
"A m I T Q | o.X.%.$.&.*.:.-.;.  >X,X,X<X  *.&.$.%.X.o.| Q T I m ",
"L Y W [  .O.@.>.=.,.! ~ ' _   # >X-X;X:X  ~ ! ,.=.>.@.O. .[ W Y ",
"R G } O.@.>.-.! ( _ ] Y.E.R.  -X>X  ,X    Y.] _ ( ! -.>.@.O.} G ",
"| ..%.>.-.^ ) ] T.W.Q.!.G.H.  X ;X,X,X<X  !.Q.W.T.] ) ^ -.>.%...",
"+.$.*.! ' ] E.Q.!.J.P.L.U.  >X# -X;X;X:X  L.P.J.!.Q.E.] ' ! *.$.",
"#.-./ ` T.Q.G.K.L./._.'.  >X# @ # -X;X:X  '._./.L.K.G.Q.T.` / -.",
";.( ] R.!.J.I.(.).].2.5.  # + @ # @ ;X    5.2.].).(.I.J.!.R.] ( ",
"' ~.Q.G.P./.).<.6.7.4.  #   + @ # # # >X,X  4.7.6.<.)./.P.G.Q.~.",
"Y.Q.H.L.^.`.2.7.3.D.z.  >X  + @ @ # # # >X,X  D.3.7.2.`.^.L.H.Q.",
"Q.H.I._.<.5.4.F.c.n.  #   w.  + @ @ @ @ # >X  n.c.F.4.5.<._.I.H.",
"H.I.).1.7.S.k.l.m.N.  #   8.  . . o # >XO   w.N.m.l.k.S.7.1.).I.",
"L._.1.7.A.c.b.C.w.e.  >X  g.d.    . @ #   i.8.e.w.C.b.c.A.7.1._.",
"^.<.7.A.x.Z.V.r.y.i.p.  =X$X%X#X  @ # @   h.p.i.y.r.V.Z.x.A.7.<.",
"`.5.S.c.Z.V.t.0.u.f.=X%X&X- 3 1   #   @   %X=Xf.u.0.t.V.Z.c.S.5.",
"2.4.k.b.V.t.0.j.s.%X*X3 2 , >   #     #   3 *X%Xs.j.0.t.V.b.k.4.",
"7.F.l.C.r.0.j.a.#X- 2 < 0 7 6   #   6   0 < 2 - #Xa.j.0.r.C.l.F.",
"3.c.m.w.y.u.s.#X3 ; : 7 8 5 9   >X  9 5 8 7 : ; 3 #Xs.u.y.w.m.c.",
"D.n.N.e.i.f.%X- ; 4 6 5 9 * = % % % = * 9 5 6 4 ; - %Xf.i.e.N.n.",
"z.m.w.8.p.=X*X2 : 6 5 & = $ u r r r u $ = & 5 6 : 2 *X=Xp.8.w.m.",
"v.C.t.i.h.%X3 < 7 5 & % u e t w q w t e u % & 5 7 < 3 %Xh.i.t.C.",
"b.B.y.u.=X&X2 0 8 9 = u y q l d a d l q y u = 9 8 0 2 &X=Xu.y.B.",
"Z.w.8.g.$X- , 7 5 * $ e q s f p i p f s q e $ * 5 7 , - $Xg.8.w.",
"m.w.0.d.%X3 > 6 9 = u t l f i k j k i f l t u = 9 6 > 3 %Xd.0.w.",
"M.q.9.f.#X1 > 8 9 % r w d p k h g h k p d w r % 9 8 > 1 #Xf.9.q."
};
