/* XPM */
static char *result[] = {
/* columns rows colors chars-per-pixel */
"32 32 205 2 ",
"   c black",
".  c #581A06",
"X  c #656565",
"o  c #972805",
"O  c #BE5433",
"+  c #B1625F",
"@  c #C67B6E",
"#  c #D2957D",
"$  c #7D6ACF",
"%  c #7D6BCF",
"&  c #7B6FCD",
"*  c #7C6ECD",
"=  c #7C6CCE",
"-  c #747FC3",
";  c #767BC5",
":  c #7778C7",
">  c #7779C7",
",  c #767AC6",
"<  c #777AC6",
"1  c #757DC4",
"2  c #767CC5",
"3  c #757EC4",
"4  c #7878C7",
"5  c #7A72CB",
"6  c #7975C9",
"7  c #7876C9",
"8  c #7974CA",
"9  c #7B70CC",
"0  c #7878C8",
"q  c #7F62D3",
"w  c #7F63D3",
"e  c #7E66D1",
"r  c #7E67D1",
"t  c #7F64D2",
"y  c #7F65D2",
"u  c #7E68D0",
"i  c #825AD7",
"p  c #825BD7",
"a  c #815ED5",
"s  c #805FD5",
"d  c #815FD5",
"f  c #815DD6",
"g  c #8453DA",
"h  c #8354D9",
"j  c #8356D8",
"k  c #8257D8",
"l  c #8060D4",
"z  c #2BBF8B",
"x  c #2CBF8B",
"c  c #2DBF8B",
"v  c #2EBE8C",
"b  c #2FBE8C",
"n  c #2EBF8C",
"m  c #36BB8F",
"M  c #31BD8D",
"N  c #32BD8D",
"B  c #30BE8D",
"V  c #31BE8D",
"C  c #33BC8E",
"Z  c #32BD8E",
"A  c #33BD8E",
"S  c #34BC8F",
"D  c #35BC8F",
"F  c #3EB794",
"G  c #3FB794",
"H  c #36BB90",
"J  c #37BB90",
"K  c #38BA90",
"L  c #38BB90",
"P  c #38BA91",
"I  c #39BA91",
"U  c #3ABA91",
"Y  c #3AB992",
"T  c #3BB992",
"R  c #3CB992",
"E  c #3CB893",
"W  c #3DB893",
"Q  c #3EB893",
"!  c #4CAF9C",
"~  c #4DAE9D",
"^  c #4CAF9D",
"/  c #4DAF9D",
"(  c #4EAE9D",
")  c #4EAD9E",
"_  c #4FAD9E",
"`  c #4FAD9F",
"'  c #4EAE9E",
"]  c #50AC9F",
"[  c #40B794",
"{  c #40B695",
"}  c #41B695",
"|  c #40B795",
" . c #42B596",
".. c #43B596",
"X. c #43B597",
"o. c #42B696",
"O. c #44B497",
"+. c #44B597",
"@. c #46B398",
"#. c #47B299",
"$. c #46B399",
"%. c #45B498",
"&. c #48B299",
"*. c #49B19A",
"=. c #49B19B",
"-. c #4AB09B",
";. c #4BB09B",
":. c #4AB19B",
">. c #48B29A",
",. c #4BB09C",
"<. c #5E9FAB",
"1. c #5F9FAB",
"2. c #5F9EAC",
"3. c #629BAE",
"4. c #639AAF",
"5. c #629BAF",
"6. c #609DAD",
"7. c #609EAC",
"8. c #619CAE",
"9. c #6D8BBB",
"0. c #6E8ABB",
"q. c #6E8BBB",
"w. c #6B8EB8",
"e. c #6B8FB8",
"r. c #6C8DB9",
"t. c #6C8EB8",
"y. c #6C8EB9",
"u. c #6D8CBA",
"i. c #6F88BD",
"p. c #6E8ABC",
"a. c #7087BD",
"s. c #7184BF",
"d. c #7185BF",
"f. c #7086BE",
"g. c #7186BE",
"h. c #7087BE",
"j. c #7186BF",
"k. c #7088BD",
"l. c #6597B1",
"z. c #6795B3",
"x. c #6597B2",
"c. c #6696B2",
"v. c #6697B2",
"b. c #6696B3",
"n. c #6794B4",
"m. c #6795B4",
"M. c #6893B5",
"N. c #6993B5",
"B. c #6A91B6",
"V. c #6A90B7",
"C. c #6A91B7",
"Z. c #6992B6",
"A. c #6894B4",
"S. c #6399B0",
"D. c #639AB0",
"F. c #6498B1",
"G. c #6598B1",
"H. c #6499B1",
"J. c #56A7A4",
"K. c #57A7A4",
"L. c #57A6A5",
"P. c #58A6A5",
"I. c #59A4A6",
"U. c #58A5A6",
"Y. c #59A4A7",
"T. c #5AA4A7",
"R. c #51ABA0",
"E. c #52ABA0",
"W. c #53AAA1",
"Q. c #52ABA1",
"!. c #53AAA2",
"~. c #54A9A2",
"^. c #55A8A3",
"/. c #51ACA0",
"(. c #5BA2A8",
"). c #5AA3A8",
"_. c #5BA3A8",
"`. c #5CA1A9",
"'. c #5CA2A9",
"]. c #5DA0AA",
"[. c #5DA1AA",
"{. c #5EA0AB",
"}. c #22C288",
"|. c #23C288",
" X c #25C189",
".X c #26C189",
"XX c #27C189",
"oX c #24C288",
"OX c #28C08A",
"+X c #29C08A",
"@X c #2AC08A",
"#X c #2AC08B",
"$X c #2BC08B",
"%X c #7381C1",
"&X c #7283C0",
"*X c #7382C1",
"=X c #7480C2",
"-X c #7480C3",
";X c #7284C0",
":X c #808080",
">X c #959595",
",X c gray65",
"<X c #E0AD8B",
"1X c #EEC39A",
"2X c #F8E0BC",
/* pixels */
"}.}.}.}.}.}.}.}.}.}.}.}.}.}.}.}.}.}.}.}.}.}.}.}.}.}.}.}.}.}.}.}.",
"}.}.}.}.}.}.}.}.}.|.oX X.X.XXXXXXXXXXX.X.X XoX|.}.}.}.}.}.}.}.}.",
"}.}.}.}.}.}.oX XXXOX+X#Xz x x c c c x x z #X+XOXXX XoX}.}.}.}.}.",
"}.}.}.|. XXX+X$Xx n b B V M Z Z Z Z Z M V B b n x $X+XXX X|.}.}.",
"}.|. XOX@Xx v B N A S D m J J L L L J J m D S A N B v x @XOX X|.",
" XOX#Xc b M C D J K I Y T R E W W W E R T Y I K J D C M b c #XOX",
"@Xc b Z S H P U R W F G { } } o.o.o.} } { G F W R U P H S Z b c ",
"b M S J I T W G } o.X.O.%.@.@.$.$.$.@.@.%.O.X.o.} G W T I J S M ",
"A m I T Q | o.X.%.$.&.*.:.-.        ;.-.:.*.&.$.%.X.o.| Q T I m ",
"L Y W [  .O.@.>.=.,.! ~ '   <X1X1X2X  _ ' ~ ! ,.=.>.@.O. .[ W Y ",
"R G } O.@.>.-.! ( _ ] R.  # <X:X>X,X  W.Q.R.] _ ( ! -.>.@.O.} G ",
"| ..%.>.-.^ ) ] E.!.~.^.  :X<X  1X    K.J.^.~.!.E.] ) ^ -.>.%...",
"+.$.*.! ' ] Q.~.^.L.U.I.  X >X1X1X2X  _.T.I.U.L.^.~.Q.] ' ! *.$.",
"#.-./ ` E.~.J.P.I.).'.  <X# :X>X>X,X  <.].[.'.).I.P.J.~.E.` / -.",
";.( ] W.^.L.Y._.`.{.2.  <X@ # :X>X,X  3.8.6.2.{.`._.Y.L.^.W.] ( ",
"' /.~.J.U.).`.<.7.8.5.  # @ # @ >X    G.F.S.5.8.7.<.`.).U.J.~./.",
"R.~.K.I.(.].2.8.4.F.x.  # @ # # # <X1X  n.b.x.F.4.8.2.].(.I.K.~.",
"~.K.Y.'.<.6.5.H.v.m.M.  <X@ @ # # # <X1X  Z.M.m.v.H.5.6.<.'.Y.K.",
"K.Y.`.1.8.D.l.z.M.B.e.  # + @ @ @ @ # <X  y.e.B.M.z.l.D.8.1.`.Y.",
"I.'.1.8.S.v.n.Z.e.r.9.  # . . o o o O   i.p.9.r.e.Z.n.v.S.8.1.'.",
"(.<.8.S.c.A.C.t.u.p.a.  <X@ @ . o o O   ;Xj.a.p.u.t.C.A.c.S.8.<.",
"].6.D.v.A.C.y.q.i.g.;X*X  @ #     # <X  =X*X;Xg.i.q.y.C.A.v.D.6.",
"2.5.l.n.C.y.q.k.d.*X-X3   @   >   #   , 2 3 -X*Xd.k.q.y.C.n.l.5.",
"8.H.z.Z.t.q.k.s.%X- 2   @   6 8   #   7 0 < 2 - %Xs.k.q.t.Z.z.H.",
"4.v.M.e.u.i.d.%X3 ; :   #   9 9   <X  5 8 7 : ; 3 %Xd.i.u.e.M.v.",
"F.m.B.r.p.g.*X- ; 4 6 5 9 * = % % % = * 9 5 6 4 ; - *Xg.p.r.B.m.",
"x.M.e.9.a.;X-X2 : 6 5 & = $ u r r r u $ = & 5 6 : 2 -X;Xa.9.e.M.",
"b.Z.y.p.j.*X3 < 7 5 & % u e t w q w t e u % & 5 7 < 3 *Xj.p.y.Z.",
"n.V.u.i.;X=X2 0 8 9 = u y q l d a d l q y u = 9 8 0 2 =X;Xi.u.V.",
"A.e.9.h.&X- , 7 5 * $ e q s f p i p f s q e $ * 5 7 , - &Xh.9.e.",
"M.e.q.f.*X3 > 6 9 = u t l f i k j k i f l t u = 9 6 > 3 *Xf.q.e.",
"N.w.0.g.%X1 > 8 9 % r w d p k h g h k p d w r % 9 8 > 1 %Xg.0.w."
};
