/* XPM */
static char *result[] = {
/* columns rows colors chars-per-pixel */
"32 32 88 1 ",
"  c #346EBB",
". c #356FBB",
"X c #346BBD",
"o c #3568BF",
"O c #336CBC",
"+ c #356CBC",
"@ c #346DBC",
"# c #356DBC",
"$ c #356CBD",
"% c #356EBC",
"& c #3175B7",
"* c #3377B6",
"= c #307FB1",
"- c #317DB2",
"; c #307AB4",
": c #327BB4",
"> c #3378B6",
", c #3271B9",
"< c #3273B8",
"1 c #3370BA",
"2 c #3473B9",
"3 c #3571BA",
"4 c #3570BB",
"5 c #3572BA",
"6 c #3474B8",
"7 c #365AC7",
"8 c #365BC7",
"9 c #365DC5",
"0 c #365FC4",
"q c #365EC5",
"w c #375EC5",
"e c #365FC5",
"r c #375CC6",
"t c #365DC6",
"y c #3659C8",
"u c #3759C8",
"i c #365AC8",
"p c #375AC8",
"a c #375AC9",
"s c #385AC9",
"d c #385BC9",
"f c #395CC9",
"g c #3A5DC9",
"h c #395CCA",
"j c #3A5DCA",
"k c #3B5DCA",
"l c #3B5ECA",
"z c #3C5ECA",
"x c #3D5FCB",
"c c #3C5FCC",
"v c #3561C3",
"b c #3661C3",
"n c #3562C2",
"m c #3663C2",
"M c #3564C1",
"N c #3665C1",
"B c #3466C0",
"V c #3567C0",
"C c #3566C1",
"Z c #3560C4",
"A c #3660C4",
"S c #299F9D",
"D c #2A9D9F",
"F c #299E9E",
"G c #27A798",
"H c #27A59A",
"J c #28A39B",
"K c #28A19C",
"L c #2D87AC",
"P c #2D8AAA",
"I c #2B95A3",
"U c #2A96A3",
"Y c #2C95A3",
"T c #2D97A2",
"R c #2D96A3",
"E c #2D97A3",
"W c #2B93A4",
"Q c #2B95A4",
"! c #2C95A4",
"~ c #2A98A1",
"^ c #2B9BA0",
"/ c #2A9AA1",
"( c #2A98A2",
") c #2D99A1",
"_ c #2C9AA0",
"` c #2C9BA0",
"' c #2D98A2",
"] c #B5C3F0",
/* pixels */
"]]]]]]]]]]]]]]]]]]]]]]]]]]]]]]]]",
"]/(UQWWWWIY!RET''))`_^DDFSSKJHG]",
"]P]]]]]]]]]]]]]]]]]]]]]]]]]]]]~]",
"];]&<,1 @@+$##%%.4335266*>:-=]L]",
"]O]BMnZeq9tttttqqqqq0AbmNVoX@]&]",
"]v]t87iyyyyyyyyyyyyyyyi78rweA]C]",
"]8]yyyyyyyyyyyyyyyyyyyypflxzg]t]",
"]y]yyyyyyyyyyyyyyyyyyypasddfj]f]",
"]y]yyyyyyyyyyyyyyyyyyyyyyyyyy]f]",
"]y]yypppyyyyyyyyyyyyyyyyyyyyy]u]",
"]y]yyyyyyyyyyyyyyyyyyyyyyyyyy]y]",
"]y]yyyyyyyyyyyyyyyyyyyyyyyyyy]y]",
"]y]yyyyyyyyyyyyyyyyyyyyyyyyyy]y]",
"]y]yyyyyyyyyyyyyyyyyyyyyyyyyy]y]",
"]y]yyyyyyyyyyyyyyyyyyyyyyyyyy]y]",
"]y]yyyyyyyyyyyyyyyyyyyyyyyyyy]y]",
"]y]yyyyyyyyyyyyyyyyyyyyyyyyyy]y]",
"]y]yyyyyyyyyyyyyyyyyyyyyyyyyy]y]",
"]y]yyyyyyyyyyyyyyyyyyyyyyyyyy]y]",
"]y]yyyyyyyyyyyyyyyyyyyyyyyyyy]y]",
"]p]yyyyyyyyyyyyyyyyyyyyyyyyyy]y]",
"]h]pyyyyyyyyyyyyyyyyyyyyyyyyy]y]",
"]c]pyyyyyyyyyyyyyyyyyyyyyyyyy]y]",
"]k]pyyyyyyyyyyyyyyyyyyyyyyyyy]y]",
"]d]yyyyyyyyyyyyyyyyyyyyyyyyyy]y]",
"]y]yyyyyyyyyyyyyyyyyyyyyyyyyy]y]",
"]y]yyyyyyyyyyyyyyyyyyyyyyyyyy]y]",
"]y]yyyyyyyyyyyyyyyyyyyypyyyyy]y]",
"]y]yyyyyyyyyyyyyyyyyyyyppyyyy]y]",
"]y]]]]]]]]]]]]]]]]]]]]]]]]]]]]y]",
"]yyyyyyyyyyyyyyyyyyyyyyyyyyyyyy]",
"]]]]]]]]]]]]]]]]]]]]]]]]]]]]]]]]"
};
